<svg width="17" height="20" viewBox="0 0 17 20" fill="none" xmlns="http://www.w3.org/2000/svg">
<path d="M14.1041 4H12.0926C12.0926 1.79 10.2922 0 8.06944 0C5.84666 0 4.04631 1.79 4.04631 4H2.03475C0.928396 4 0.0231934 4.9 0.0231934 6V18C0.0231934 19.1 0.928396 20 2.03475 20H14.1041C15.2105 20 16.1157 19.1 16.1157 18V6C16.1157 4.9 15.2105 4 14.1041 4ZM6.05788 8C6.05788 8.55 5.60527 9 5.05209 9C4.49892 9 4.04631 8.55 4.04631 8V6H6.05788V8ZM8.06944 2C9.17579 2 10.081 2.9 10.081 4H6.05788C6.05788 2.9 6.96308 2 8.06944 2ZM12.0926 8C12.0926 8.55 11.64 9 11.0868 9C10.5336 9 10.081 8.55 10.081 8V6H12.0926V8Z" fill="white"/>
</svg>
